<?xml version="1.0" encoding="utf-8"?><svg xmlns="http://www.w3.org/2000/svg" xmlns:xlink="http://www.w3.org/1999/xlink"><symbol viewBox="0 0 348.077 348.077" id="call-answer" xmlns="http://www.w3.org/2000/svg"><path d="M340.273 275.083l-53.755-53.761c-10.707-10.664-28.438-10.34-39.518.744l-27.082 27.076a792.327 792.327 0 0 1-5.344-2.973c-17.102-9.476-40.509-22.464-65.14-47.113-24.704-24.701-37.704-48.144-47.209-65.257-1.003-1.813-1.964-3.561-2.913-5.221l18.176-18.149 8.936-8.947c11.097-11.1 11.403-28.826.721-39.521L73.39 8.194c-10.682-10.68-28.421-10.356-39.518.744l-15.15 15.237.414.411c-5.08 6.482-9.325 13.958-12.484 22.02C3.74 54.28 1.927 61.603 1.098 68.941-6 127.785 20.89 181.564 93.866 254.541c100.875 100.868 182.167 93.248 185.674 92.876 7.638-.913 14.958-2.738 22.397-5.627 7.992-3.122 15.463-7.361 21.941-12.43l.331.294 15.348-15.029c11.074-11.098 11.393-28.83.716-39.542z"/></symbol><symbol viewBox="0 0 96.124 96.123" id="facebook-logo" xmlns="http://www.w3.org/2000/svg"><path d="M72.089.02L59.624 0C45.62 0 36.57 9.285 36.57 23.656v10.907H24.037a1.96 1.96 0 0 0-1.96 1.961v15.803a1.96 1.96 0 0 0 1.96 1.96H36.57v39.876a1.96 1.96 0 0 0 1.96 1.96h16.352a1.96 1.96 0 0 0 1.96-1.96V54.287h14.654a1.96 1.96 0 0 0 1.96-1.96l.006-15.803a1.963 1.963 0 0 0-1.961-1.961H56.842v-9.246c0-4.444 1.059-6.7 6.848-6.7l8.397-.003a1.96 1.96 0 0 0 1.959-1.96V1.98A1.96 1.96 0 0 0 72.089.02z"/></symbol><symbol viewBox="0 0 97.395 97.395" id="instagram-social-network-logo-of-photo-camera" xmlns="http://www.w3.org/2000/svg"><path d="M12.501 0h72.393c6.875 0 12.5 5.09 12.5 12.5v72.395c0 7.41-5.625 12.5-12.5 12.5H12.501C5.624 97.395 0 92.305 0 84.895V12.5C0 5.09 5.624 0 12.501 0zm58.447 10.821a4.395 4.395 0 0 0-4.383 4.385v10.495a4.396 4.396 0 0 0 4.383 4.385h11.008a4.398 4.398 0 0 0 4.385-4.385V15.206a4.397 4.397 0 0 0-4.385-4.385H70.948zm15.439 30.367h-8.572a28.486 28.486 0 0 1 1.25 8.355c0 16.2-13.556 29.332-30.275 29.332-16.718 0-30.272-13.132-30.272-29.332 0-2.904.438-5.708 1.25-8.355h-8.945v41.141a3.884 3.884 0 0 0 3.872 3.872h67.822a3.883 3.883 0 0 0 3.872-3.872V41.188h-.002zM48.789 29.533c-10.802 0-19.56 8.485-19.56 18.953s8.758 18.953 19.56 18.953c10.803 0 19.562-8.485 19.562-18.953s-8.758-18.953-19.562-18.953z"/></symbol><symbol viewBox="0 0 476.213 476.213" id="next" xmlns="http://www.w3.org/2000/svg"><path d="M476.213 238.105L400 161.893v61.213H0v30h400v61.214z"/></symbol><symbol viewBox="0 0 0 0" id="sprite" xmlns="http://www.w3.org/2000/svg"/><symbol viewBox="0 0 512 512" id="tel" xmlns="http://www.w3.org/2000/svg"><path d="M256 32c123.5 0 224 100.5 224 224S379.5 480 256 480 32 379.5 32 256 132.5 32 256 32m0-32C114.625 0 0 114.625 0 256s114.625 256 256 256 256-114.625 256-256S397.375 0 256 0zm142.719 341.594l-1.438-4.375c-3.375-10.062-14.5-20.562-24.75-23.375L334.688 303.5c-10.25-2.781-24.875.969-32.405 8.5l-13.688 13.688c-49.75-13.469-88.781-52.5-102.219-102.25l13.688-13.688c7.5-7.5 11.25-22.125 8.469-32.406L198.219 139.5c-2.781-10.25-13.344-21.375-23.406-24.75l-4.313-1.438c-10.094-3.375-24.5.031-32 7.563l-20.5 20.5c-3.656 3.625-6 14.031-6 14.063-.688 65.063 24.813 127.719 70.813 173.75 45.875 45.875 108.313 71.345 173.156 70.781.344 0 11.063-2.281 14.719-5.938l20.5-20.5c7.5-7.469 10.874-21.875 7.531-31.937z"/></symbol><symbol viewBox="0 0 612 612" id="twitter-logo-silhouette" xmlns="http://www.w3.org/2000/svg"><path d="M612 116.258a250.714 250.714 0 0 1-72.088 19.772c25.929-15.527 45.777-40.155 55.184-69.411-24.322 14.379-51.169 24.82-79.775 30.48-22.907-24.437-55.49-39.658-91.63-39.658-69.334 0-125.551 56.217-125.551 125.513 0 9.828 1.109 19.427 3.251 28.606-104.326-5.24-196.835-55.223-258.75-131.174-10.823 18.51-16.98 40.078-16.98 63.101 0 43.559 22.181 81.993 55.835 104.479a125.556 125.556 0 0 1-56.867-15.756v1.568c0 60.806 43.291 111.554 100.693 123.104-10.517 2.83-21.607 4.398-33.08 4.398-8.107 0-15.947-.803-23.634-2.333 15.985 49.907 62.336 86.199 117.253 87.194-42.947 33.654-97.099 53.655-155.916 53.655-10.134 0-20.116-.612-29.944-1.721 55.567 35.681 121.536 56.485 192.438 56.485 230.948 0 357.188-191.291 357.188-357.188l-.421-16.253c24.666-17.593 46.005-39.697 62.794-64.861z"/></symbol><symbol viewBox="0 0 511.962 511.962" id="vk" xmlns="http://www.w3.org/2000/svg"><path d="M507.399 370.471c-1.376-2.304-9.888-20.8-50.848-58.816-42.88-39.808-37.12-33.344 14.528-102.176 31.456-41.92 44.032-67.52 40.096-78.464-3.744-10.432-26.88-7.68-26.88-7.68l-76.928.448s-5.696-.768-9.952 1.76c-4.128 2.496-6.784 8.256-6.784 8.256s-12.192 32.448-28.448 60.032c-34.272 58.208-48 61.28-53.6 57.664-13.024-8.416-9.76-33.856-9.76-51.904 0-56.416 8.544-79.936-16.672-86.016-8.384-2.016-14.528-3.36-35.936-3.584-27.456-.288-50.72.096-63.872 6.528-8.768 4.288-15.52 13.856-11.392 14.4 5.088.672 16.608 3.104 22.72 11.424 7.904 10.72 7.616 34.848 7.616 34.848s4.544 66.4-10.592 74.656c-10.4 5.664-24.64-5.888-55.2-58.72-15.648-27.04-27.488-56.96-27.488-56.96s-2.272-5.568-6.336-8.544c-4.928-3.616-11.84-4.768-11.84-4.768l-73.152.448s-10.976.32-15.008 5.088c-3.584 4.256-.288 13.024-.288 13.024s57.28 133.984 122.112 201.536c59.488 61.92 127.008 57.856 127.008 57.856h30.592s9.248-1.024 13.952-6.112c4.352-4.672 4.192-13.44 4.192-13.44s-.608-41.056 18.464-47.104c18.784-5.952 42.912 39.68 68.48 57.248 19.328 13.28 34.016 10.368 34.016 10.368l68.384-.96s35.776-2.208 18.816-30.336z"/></symbol><symbol viewBox="0 0 90 90" id="whatsapp-logo" xmlns="http://www.w3.org/2000/svg"><path d="M90 43.841c0 24.213-19.779 43.841-44.182 43.841a44.256 44.256 0 0 1-21.357-5.455L0 90l7.975-23.522a43.38 43.38 0 0 1-6.34-22.637C1.635 19.628 21.416 0 45.818 0 70.223 0 90 19.628 90 43.841zM45.818 6.982c-20.484 0-37.146 16.535-37.146 36.859 0 8.065 2.629 15.534 7.076 21.61L11.107 79.14l14.275-4.537A37.122 37.122 0 0 0 45.819 80.7c20.481 0 37.146-16.533 37.146-36.857S66.301 6.982 45.818 6.982zm22.311 46.956c-.273-.447-.994-.717-2.076-1.254-1.084-.537-6.41-3.138-7.4-3.495-.993-.358-1.717-.538-2.438.537-.721 1.076-2.797 3.495-3.43 4.212-.632.719-1.263.809-2.347.271-1.082-.537-4.571-1.673-8.708-5.333-3.219-2.848-5.393-6.364-6.025-7.441-.631-1.075-.066-1.656.475-2.191.488-.482 1.084-1.255 1.625-1.882.543-.628.723-1.075 1.082-1.793.363-.717.182-1.344-.09-1.883-.27-.537-2.438-5.825-3.34-7.977-.902-2.15-1.803-1.792-2.436-1.792-.631 0-1.354-.09-2.076-.09s-1.896.269-2.889 1.344c-.992 1.076-3.789 3.676-3.789 8.963 0 5.288 3.879 10.397 4.422 11.113.541.716 7.49 11.92 18.5 16.223C58.2 65.771 58.2 64.336 60.186 64.156c1.984-.179 6.406-2.599 7.312-5.107.9-2.512.9-4.663.631-5.111z"/></symbol></svg>